<svg width="35" height="40" viewBox="0 0 35 40" fill="none" xmlns="http://www.w3.org/2000/svg">
<path d="M4.375 40C3.75521 40 3.23531 39.808 2.81531 39.424C2.39677 39.0413 2.1875 38.5667 2.1875 38C2.1875 37.4333 2.39677 36.9587 2.81531 36.576C3.23531 36.192 3.75521 36 4.375 36H15.3125V28H10.9375C7.91146 28 5.3324 27.0247 3.20031 25.074C1.06677 23.1247 0 20.7667 0 18C0 16 0.601562 14.158 1.80469 12.474C3.00781 10.7913 4.63021 9.56667 6.67188 8.8C7 6.3 8.19437 4.208 10.255 2.524C12.3142 0.841334 14.7292 0 17.5 0C20.2708 0 22.6858 0.841334 24.745 2.524C26.8056 4.208 28 6.3 28.3281 8.8C30.3698 9.56667 31.9922 10.7913 33.1953 12.474C34.3984 14.158 35 16 35 18C35 20.7667 33.934 23.1247 31.8019 25.074C29.6683 27.0247 27.0885 28 24.0625 28H19.6875V36H30.625C31.2448 36 31.764 36.192 32.1825 36.576C32.6025 36.9587 32.8125 37.4333 32.8125 38C32.8125 38.5667 32.6025 39.0413 32.1825 39.424C31.764 39.808 31.2448 40 30.625 40H4.375Z" fill="#8CDC29"/>
</svg>
