<svg width="25" height="35" viewBox="0 0 25 35" fill="none" xmlns="http://www.w3.org/2000/svg">
<path d="M12.25 35C11.8417 35 11.4917 34.8833 11.2 34.65C10.9083 34.4167 10.6896 34.1104 10.5438 33.7312C9.98958 32.0979 9.28959 30.5667 8.44375 29.1375C7.62708 27.7083 6.475 26.0312 4.9875 24.1062C3.5 22.1812 2.28958 20.3438 1.35625 18.5938C0.452084 16.8437 0 14.7292 0 12.25C0 8.8375 1.18125 5.95 3.54375 3.5875C5.93542 1.19583 8.8375 0 12.25 0C15.6625 0 18.55 1.19583 20.9125 3.5875C23.3042 5.95 24.5 8.8375 24.5 12.25C24.5 14.9042 23.9896 17.1208 22.9688 18.9C21.9771 20.65 20.825 22.3854 19.5125 24.1062C17.9375 26.2062 16.7417 27.9562 15.925 29.3562C15.1375 30.7271 14.4813 32.1854 13.9563 33.7312C13.8104 34.1396 13.5771 34.4604 13.2563 34.6938C12.9646 34.8979 12.6292 35 12.25 35ZM12.25 28.7437C12.7458 27.7521 13.3 26.775 13.9125 25.8125C14.5542 24.85 15.4875 23.5667 16.7125 21.9625C17.9667 20.3292 18.9875 18.8271 19.775 17.4562C20.5917 16.0562 21 14.3208 21 12.25C21 9.82916 20.1396 7.77292 18.4188 6.08125C16.7271 4.36042 14.6708 3.5 12.25 3.5C9.82917 3.5 7.75833 4.36042 6.0375 6.08125C4.34583 7.77292 3.5 9.82916 3.5 12.25C3.5 14.3208 3.89375 16.0562 4.68125 17.4562C5.49792 18.8271 6.53333 20.3292 7.7875 21.9625C9.0125 23.5667 9.93125 24.85 10.5438 25.8125C11.1854 26.775 11.7542 27.7521 12.25 28.7437ZM12.25 16.625C13.475 16.625 14.5104 16.2021 15.3562 15.3562C16.2021 14.5104 16.625 13.475 16.625 12.25C16.625 11.025 16.2021 9.98958 15.3562 9.14375C14.5104 8.29792 13.475 7.875 12.25 7.875C11.025 7.875 9.98958 8.29792 9.14375 9.14375C8.29792 9.98958 7.875 11.025 7.875 12.25C7.875 13.475 8.29792 14.5104 9.14375 15.3562C9.98958 16.2021 11.025 16.625 12.25 16.625Z" fill="#F53454"/>
</svg>
