<svg width="44" height="43" viewBox="0 0 44 43" fill="none" xmlns="http://www.w3.org/2000/svg">
<path d="M33.8492 42.2885H37.1429C38.8095 42.2885 40.1786 41.0577 40.377 39.4808L43.6508 7.78846H33.7302V0H29.8214V7.78846H19.9603L20.5556 12.2885C23.9484 13.1923 27.123 14.8269 29.0278 16.6346C31.8849 19.3654 33.8492 22.1923 33.8492 26.8077V42.2885ZM0 40.3654V38.4615H29.8214V40.3654C29.8214 41.4231 28.9286 42.2885 27.8175 42.2885H2.00397C0.892857 42.2885 0 41.4231 0 40.3654ZM29.8214 26.9038C29.8214 11.5192 0 11.5192 0 26.9038H29.8214ZM0.0396825 30.7692H29.8016V34.6154H0.0396825V30.7692Z" fill="#F58E34"/>
</svg>
