<svg width="40" height="40" viewBox="0 0 40 40" fill="none" xmlns="http://www.w3.org/2000/svg">
<path d="M2.05703 0.0806063C1.23837 -0.192281 0.353493 0.250157 0.0806063 1.06882C-0.192281 1.88748 0.250157 2.77235 1.06882 3.04524L1.62072 3.22921C3.0299 3.69893 3.96156 4.01198 4.64792 4.33127C5.29784 4.63362 5.57883 4.87694 5.75887 5.12674C5.93891 5.37653 6.08089 5.72005 6.1622 6.43223C6.24806 7.18433 6.25042 8.16718 6.25042 9.65258L6.25042 15.2189C6.25038 18.0681 6.25035 20.3646 6.49318 22.1707C6.7453 24.046 7.28466 25.6249 8.53865 26.8789C9.79265 28.1329 11.3716 28.6722 13.2468 28.9243C15.053 29.1672 17.3494 29.1671 20.1986 29.1671H34.8963C35.7592 29.1671 36.4588 28.4675 36.4588 27.6046C36.4588 26.7416 35.7592 26.0421 34.8963 26.0421H20.3129C17.3225 26.0421 15.2368 26.0388 13.6632 25.8272C12.1345 25.6217 11.325 25.2457 10.7484 24.6692C10.2584 24.1792 9.91332 23.521 9.69458 22.3963H30.7755C32.7743 22.3963 33.7737 22.3963 34.5564 21.8801C35.3391 21.364 35.7328 20.4454 36.5201 18.6083L37.413 16.5249C39.0995 12.5899 39.9427 10.6224 39.0164 9.21764C38.0901 7.81292 35.9496 7.81292 31.6684 7.81292H9.36512C9.35283 7.17191 9.32592 6.59357 9.26703 6.07775C9.15171 5.06772 8.90045 4.14092 8.294 3.29952C7.68755 2.45811 6.88777 1.92667 5.96603 1.49787C5.09888 1.09446 3.99612 0.726917 2.69117 0.291986L2.05703 0.0806063Z" fill="#3478F5"/>
<path d="M13.0208 32.813C14.7467 32.813 16.1458 34.2121 16.1458 35.938C16.1458 37.6639 14.7467 39.063 13.0208 39.063C11.2949 39.063 9.89583 37.6639 9.89583 35.938C9.89583 34.2121 11.2949 32.813 13.0208 32.813Z" fill="#3478F5"/>
<path d="M31.7708 32.8132C33.4967 32.8132 34.8958 34.2123 34.8958 35.9382C34.8958 37.6641 33.4967 39.0632 31.7708 39.0632C30.0449 39.0632 28.6458 37.6641 28.6458 35.9382C28.6458 34.2123 30.0449 32.8132 31.7708 32.8132Z" fill="#3478F5"/>
</svg>
