<svg width="35" height="35" viewBox="0 0 35 35" fill="none" xmlns="http://www.w3.org/2000/svg">
<path d="M1.94444 35C1.39352 35 0.931389 34.8133 0.558056 34.44C0.186019 34.068 0 33.6065 0 33.0556C0 32.5046 0.186019 32.0431 0.558056 31.6711C0.931389 31.2978 1.39352 31.1111 1.94444 31.1111H29.1667C29.7176 31.1111 30.1791 31.2978 30.5511 31.6711C30.9244 32.0431 31.1111 32.5046 31.1111 33.0556C31.1111 33.6065 30.9244 34.068 30.5511 34.44C30.1791 34.8133 29.7176 35 29.1667 35H1.94444ZM7.77778 27.2222C5.63889 27.2222 3.80787 26.4606 2.28472 24.9375C0.761574 23.4144 0 21.5833 0 19.4444V3.88889C0 2.81944 0.381111 1.90361 1.14333 1.14139C1.90426 0.380463 2.81944 0 3.88889 0H31.1111C32.1806 0 33.0964 0.380463 33.8586 1.14139C34.6195 1.90361 35 2.81944 35 3.88889V9.72222C35 10.7917 34.6195 11.7069 33.8586 12.4678C33.0964 13.23 32.1806 13.6111 31.1111 13.6111H27.2222V19.4444C27.2222 21.5833 26.4606 23.4144 24.9375 24.9375C23.4144 26.4606 21.5833 27.2222 19.4444 27.2222H7.77778ZM27.2222 9.72222H31.1111V3.88889H27.2222V9.72222Z" fill="#B9781E"/>
</svg>
