<svg width="20" height="20" viewBox="0 0 20 20" fill="none" xmlns="http://www.w3.org/2000/svg">
<path d="M4.18286 3.25381L18.7714 2.52191L15.5524 0.726176C14.7571 0.196594 13.7943 -0.0551446 12.8438 0.0101209L1.33048 0.461385L4.18286 3.25381ZM2.85714 4.59269L0 1.7956V14.3639C0 14.9195 0.165714 15.4557 0.48 15.9153L2.85714 19.407V4.59269ZM4.7619 5.09244V20L19.1067 19.1226C19.6086 19.0919 20 18.6844 20 18.1921V4.3279L4.7619 5.09244ZM17.579 7.78697C17.0733 7.88953 17.0733 7.88953 17.0733 8.38834C17.0733 11.068 17.0714 13.7476 17.0781 16.4272C17.0781 16.6137 17.0267 16.7274 16.8457 16.7833C16.521 16.884 16.2029 17.0146 15.8714 17.0826C15.341 17.1908 14.8743 17.0481 14.5562 16.6025C14.1171 15.988 13.6895 15.3662 13.2724 14.7377C12.3029 13.2767 11.3419 11.8092 10.3781 10.3444C10.3571 10.3127 10.3333 10.2838 10.2781 10.212C10.2667 10.3118 10.2543 10.3715 10.2543 10.4312C10.2533 12.2549 10.2552 14.0795 10.2495 15.9032C10.2486 16.0645 10.3019 16.1298 10.461 16.1596C10.8181 16.2267 11.1724 16.3106 11.5248 16.3871C11.4819 16.7656 11.2676 17.0006 10.8714 17.0649C10.581 17.1115 10.2838 17.1181 9.98857 17.1348C9.27429 17.1768 8.5581 17.2085 7.84476 17.2579C7.63714 17.2728 7.59524 17.188 7.63048 17.022C7.67429 16.815 7.78191 16.6649 8.01048 16.6109C8.23524 16.5577 8.45714 16.4887 8.68 16.4272C8.68 13.8035 8.68 11.1938 8.68 8.56549C8.34095 8.53659 8.00952 8.50768 7.68095 8.47971C7.55048 8.02845 7.8381 7.61168 8.32476 7.57346C9.20095 7.50446 10.0819 7.47742 10.9552 7.38325C11.3286 7.34223 11.5038 7.47649 11.6905 7.7562C12.9267 9.60881 14.179 11.4512 15.4267 13.2963C15.4724 13.3644 15.5229 13.4306 15.6124 13.5564C15.6124 11.6908 15.6124 9.89411 15.6124 8.08346C15.3076 8.04896 15.0162 8.00794 14.7229 7.98649C14.5629 7.9753 14.5238 7.90444 14.5419 7.76645C14.581 7.4709 14.8181 7.20237 15.1362 7.17907C16.1038 7.10821 17.0743 7.05972 18.039 7.00378C18.179 7.46996 18.0438 7.6928 17.579 7.78697Z" fill="#7C7C7C"/>
</svg>
