<svg width="110" height="126" viewBox="0 0 110 126" fill="none" xmlns="http://www.w3.org/2000/svg">
<g filter="url(#filter0_f_193_149)">
<ellipse cx="55.0002" cy="118.231" rx="16.6667" ry="5.76923" fill="black" fill-opacity="0.2"/>
</g>
<g filter="url(#filter1_d_193_149)">
<path fill-rule="evenodd" clip-rule="evenodd" d="M55 4C82.6142 4 105 25.697 105 52.4615C105 72.9828 91.8399 90.525 73.2532 97.5923L57.8478 118.001C57.5267 118.429 57.1003 118.777 56.6046 119.018C56.1089 119.259 55.5586 119.385 55 119.385C54.4414 119.385 53.8911 119.259 53.3954 119.018C52.8997 118.777 52.4733 118.429 52.1521 118.001L36.7468 97.5923C18.1601 90.525 5 72.9828 5 52.4615C5 25.697 27.3858 4 55 4Z" fill="white"/>
</g>
<path d="M95.4763 52.4615C95.4763 30.795 77.3545 13.2308 55.0001 13.2308C32.6457 13.2308 14.5239 30.795 14.5239 52.4615C14.5239 74.1281 32.6457 91.6923 55.0001 91.6923C77.3545 91.6923 95.4763 74.1281 95.4763 52.4615Z" fill="#3478F5"/>
<path d="M36.661 37.7676C35.8424 37.4947 34.9575 37.9372 34.6846 38.7558C34.4117 39.5745 34.8542 40.4594 35.6728 40.7322L36.2247 40.9162C37.6339 41.3859 38.5656 41.699 39.2519 42.0183C39.9018 42.3206 40.1828 42.5639 40.3629 42.8137C40.5429 43.0635 40.6849 43.407 40.7662 44.1192C40.8521 44.8713 40.8544 45.8542 40.8544 47.3396L40.8544 52.9059C40.8544 55.7551 40.8543 58.0516 41.0972 59.8577C41.3493 61.733 41.8887 63.3119 43.1427 64.5659C44.3967 65.8199 45.9756 66.3592 47.8508 66.6113C49.657 66.8542 51.9534 66.8541 54.8026 66.8541H69.5003C70.3632 66.8541 71.0628 66.1545 71.0628 65.2916C71.0628 64.4286 70.3632 63.7291 69.5003 63.7291H54.9169C51.9265 63.7291 49.8408 63.7258 48.2672 63.5142C46.7385 63.3087 45.929 62.9327 45.3524 62.3561C44.8624 61.8662 44.5173 61.208 44.2986 60.0833H65.3795C67.3783 60.0833 68.3777 60.0833 69.1604 59.5671C69.9431 59.051 70.3368 58.1324 71.1242 56.2952L72.017 54.2119C73.7035 50.2769 74.5467 48.3094 73.6204 46.9046C72.6942 45.4999 70.5536 45.4999 66.2724 45.4999H43.9691C43.9568 44.8589 43.9299 44.2806 43.871 43.7648C43.7557 42.7547 43.5045 41.8279 42.898 40.9865C42.2916 40.1451 41.4918 39.6137 40.57 39.1849C39.7029 38.7815 38.6001 38.4139 37.2952 37.979L36.661 37.7676Z" fill="white"/>
<path d="M47.6248 70.5C49.3507 70.5 50.7498 71.8991 50.7498 73.625C50.7498 75.3509 49.3507 76.75 47.6248 76.75C45.8989 76.75 44.4998 75.3509 44.4998 73.625C44.4998 71.8991 45.8989 70.5 47.6248 70.5Z" fill="white"/>
<path d="M66.3748 70.5002C68.1007 70.5002 69.4998 71.8993 69.4998 73.6252C69.4998 75.351 68.1007 76.7502 66.3748 76.7502C64.6489 76.7502 63.2498 75.351 63.2498 73.6252C63.2498 71.8993 64.6489 70.5002 66.3748 70.5002Z" fill="white"/>
<defs>
<filter id="filter0_f_193_149" x="36.3335" y="110.462" width="37.3335" height="15.5385" filterUnits="userSpaceOnUse" color-interpolation-filters="sRGB">
<feFlood flood-opacity="0" result="BackgroundImageFix"/>
<feBlend mode="normal" in="SourceGraphic" in2="BackgroundImageFix" result="shape"/>
<feGaussianBlur stdDeviation="1" result="effect1_foregroundBlur_193_149"/>
</filter>
<filter id="filter1_d_193_149" x="0" y="0" width="110" height="125.385" filterUnits="userSpaceOnUse" color-interpolation-filters="sRGB">
<feFlood flood-opacity="0" result="BackgroundImageFix"/>
<feColorMatrix in="SourceAlpha" type="matrix" values="0 0 0 0 0 0 0 0 0 0 0 0 0 0 0 0 0 0 127 0" result="hardAlpha"/>
<feOffset dy="1"/>
<feGaussianBlur stdDeviation="2.5"/>
<feComposite in2="hardAlpha" operator="out"/>
<feColorMatrix type="matrix" values="0 0 0 0 0 0 0 0 0 0 0 0 0 0 0 0 0 0 0.1 0"/>
<feBlend mode="normal" in2="BackgroundImageFix" result="effect1_dropShadow_193_149"/>
<feBlend mode="normal" in="SourceGraphic" in2="effect1_dropShadow_193_149" result="shape"/>
</filter>
</defs>
</svg>
