<svg width="110" height="126" viewBox="0 0 110 126" fill="none" xmlns="http://www.w3.org/2000/svg">
<g filter="url(#filter0_f_193_249)">
<ellipse cx="55.0002" cy="118.231" rx="16.6667" ry="5.76923" fill="black" fill-opacity="0.2"/>
</g>
<g filter="url(#filter1_d_193_249)">
<path fill-rule="evenodd" clip-rule="evenodd" d="M55 4C82.6142 4 105 25.697 105 52.4615C105 72.9828 91.8399 90.525 73.2532 97.5923L57.8478 118.001C57.5267 118.429 57.1003 118.777 56.6046 119.018C56.1089 119.259 55.5586 119.385 55 119.385C54.4414 119.385 53.8911 119.259 53.3954 119.018C52.8997 118.777 52.4733 118.429 52.1521 118.001L36.7468 97.5923C18.1601 90.525 5 72.9828 5 52.4615C5 25.697 27.3858 4 55 4Z" fill="white"/>
</g>
<path d="M95.4763 52.4615C95.4763 30.795 77.3545 13.2308 55.0001 13.2308C32.6457 13.2308 14.5239 30.795 14.5239 52.4615C14.5239 74.1281 32.6457 91.6923 55.0001 91.6923C77.3545 91.6923 95.4763 74.1281 95.4763 52.4615Z" fill="#534457"/>
<path d="M55.25 72.3333C54.8417 72.3333 54.4917 72.2056 54.2 71.95C53.9083 71.6944 53.6896 71.359 53.5438 70.9437C52.9896 69.1549 52.2896 67.4778 51.4438 65.9125C50.6271 64.3472 49.475 62.5104 47.9875 60.4021C46.5 58.2937 45.2896 56.2812 44.3563 54.3646C43.4521 52.4479 43 50.1319 43 47.4167C43 43.6792 44.1813 40.5167 46.5438 37.9292C48.9354 35.3097 51.8375 34 55.25 34C58.6625 34 61.55 35.3097 63.9125 37.9292C66.3042 40.5167 67.5 43.6792 67.5 47.4167C67.5 50.3236 66.9896 52.7514 65.9688 54.7C64.9771 56.6167 63.825 58.5174 62.5125 60.4021C60.9375 62.7021 59.7417 64.6187 58.925 66.1521C58.1375 67.6535 57.4813 69.2507 56.9563 70.9437C56.8104 71.391 56.5771 71.7424 56.2563 71.9979C55.9646 72.2215 55.6292 72.3333 55.25 72.3333ZM55.25 65.4812C55.7458 64.3951 56.3 63.325 56.9125 62.2708C57.5542 61.2167 58.4875 59.8111 59.7125 58.0542C60.9667 56.2653 61.9875 54.6201 62.775 53.1187C63.5917 51.5854 64 49.6847 64 47.4167C64 44.7653 63.1396 42.5132 61.4188 40.6604C59.7271 38.7757 57.6708 37.8333 55.25 37.8333C52.8292 37.8333 50.7583 38.7757 49.0375 40.6604C47.3458 42.5132 46.5 44.7653 46.5 47.4167C46.5 49.6847 46.8938 51.5854 47.6813 53.1187C48.4979 54.6201 49.5333 56.2653 50.7875 58.0542C52.0125 59.8111 52.9313 61.2167 53.5438 62.2708C54.1854 63.325 54.7542 64.3951 55.25 65.4812ZM55.25 52.2083C56.475 52.2083 57.5104 51.7451 58.3562 50.8187C59.2021 49.8924 59.625 48.7583 59.625 47.4167C59.625 46.075 59.2021 44.941 58.3562 44.0146C57.5104 43.0882 56.475 42.625 55.25 42.625C54.025 42.625 52.9896 43.0882 52.1438 44.0146C51.2979 44.941 50.875 46.075 50.875 47.4167C50.875 48.7583 51.2979 49.8924 52.1438 50.8187C52.9896 51.7451 54.025 52.2083 55.25 52.2083Z" fill="white"/>
<defs>
<filter id="filter0_f_193_249" x="36.3335" y="110.462" width="37.3335" height="15.5385" filterUnits="userSpaceOnUse" color-interpolation-filters="sRGB">
<feFlood flood-opacity="0" result="BackgroundImageFix"/>
<feBlend mode="normal" in="SourceGraphic" in2="BackgroundImageFix" result="shape"/>
<feGaussianBlur stdDeviation="1" result="effect1_foregroundBlur_193_249"/>
</filter>
<filter id="filter1_d_193_249" x="0" y="0" width="110" height="125.385" filterUnits="userSpaceOnUse" color-interpolation-filters="sRGB">
<feFlood flood-opacity="0" result="BackgroundImageFix"/>
<feColorMatrix in="SourceAlpha" type="matrix" values="0 0 0 0 0 0 0 0 0 0 0 0 0 0 0 0 0 0 127 0" result="hardAlpha"/>
<feOffset dy="1"/>
<feGaussianBlur stdDeviation="2.5"/>
<feComposite in2="hardAlpha" operator="out"/>
<feColorMatrix type="matrix" values="0 0 0 0 0 0 0 0 0 0 0 0 0 0 0 0 0 0 0.1 0"/>
<feBlend mode="normal" in2="BackgroundImageFix" result="effect1_dropShadow_193_249"/>
<feBlend mode="normal" in="SourceGraphic" in2="effect1_dropShadow_193_249" result="shape"/>
</filter>
</defs>
</svg>
